<svg width="1041" height="380" viewBox="0 0 1041 380" fill="none" xmlns="http://www.w3.org/2000/svg">
<path d="M55.5 177C24.1667 160.333 8.5 134.167 8.5 98.5C8.5 80.5 13.1667 64.1666 22.5 49.5C31.8333 34.5 46 22.6666 65 14C84 4.99997 107.333 0.499968 135 0.499968C162.667 0.499968 185.833 4.99997 204.5 14C223.5 22.6666 237.667 34.5 247 49.5C256.333 64.1666 261 80.5 261 98.5C261 116.5 256.667 132.167 248 145.5C239.667 158.833 228.333 169.333 214 177C232 185.667 245.833 197.667 255.5 213C265.167 228 270 245.667 270 266C270 289.667 264 310.167 252 327.5C240 344.5 223.667 357.5 203 366.5C182.667 375.5 160 380 135 380C110 380 87.1667 375.5 66.5 366.5C46.1667 357.5 30 344.5 18 327.5C6 310.167 7.00355e-07 289.667 7.00355e-07 266C7.00355e-07 245.333 4.83333 227.5 14.5 212.5C24.1667 197.167 37.8333 185.333 55.5 177ZM178 111.5C178 97.8333 174 87.3333 166 80C158.333 72.3333 148 68.5 135 68.5C122 68.5 111.5 72.3333 103.5 80C95.8333 87.6667 92 98.3333 92 112C92 125 96 135.333 104 143C112 150.333 122.333 154 135 154C147.667 154 158 150.167 166 142.5C174 134.833 178 124.5 178 111.5ZM135 214C119.333 214 106.667 218.333 97 227C87.3333 235.333 82.5 247 82.5 262C82.5 276 87.1667 287.5 96.5 296.5C106.167 305.5 119 310 135 310C151 310 163.5 305.5 172.5 296.5C181.833 287.5 186.5 276 186.5 262C186.5 247.333 181.667 235.667 172 227C162.667 218.333 150.333 214 135 214ZM379.719 177C348.385 160.333 332.719 134.167 332.719 98.5C332.719 80.5 337.385 64.1666 346.719 49.5C356.052 34.5 370.219 22.6666 389.219 14C408.219 4.99997 431.552 0.499968 459.219 0.499968C486.885 0.499968 510.052 4.99997 528.719 14C547.719 22.6666 561.885 34.5 571.219 49.5C580.552 64.1666 585.219 80.5 585.219 98.5C585.219 116.5 580.885 132.167 572.219 145.5C563.885 158.833 552.552 169.333 538.219 177C556.219 185.667 570.052 197.667 579.719 213C589.385 228 594.219 245.667 594.219 266C594.219 289.667 588.219 310.167 576.219 327.5C564.219 344.5 547.885 357.5 527.219 366.5C506.885 375.5 484.219 380 459.219 380C434.219 380 411.385 375.5 390.719 366.5C370.385 357.5 354.219 344.5 342.219 327.5C330.219 310.167 324.219 289.667 324.219 266C324.219 245.333 329.052 227.5 338.719 212.5C348.385 197.167 362.052 185.333 379.719 177ZM502.219 111.5C502.219 97.8333 498.219 87.3333 490.219 80C482.552 72.3333 472.219 68.5 459.219 68.5C446.219 68.5 435.719 72.3333 427.719 80C420.052 87.6667 416.219 98.3333 416.219 112C416.219 125 420.219 135.333 428.219 143C436.219 150.333 446.552 154 459.219 154C471.885 154 482.219 150.167 490.219 142.5C498.219 134.833 502.219 124.5 502.219 111.5ZM459.219 214C443.552 214 430.885 218.333 421.219 227C411.552 235.333 406.719 247 406.719 262C406.719 276 411.385 287.5 420.719 296.5C430.385 305.5 443.219 310 459.219 310C475.219 310 487.719 305.5 496.719 296.5C506.052 287.5 510.719 276 510.719 262C510.719 247.333 505.885 235.667 496.219 227C486.885 218.333 474.552 214 459.219 214ZM636.938 100C636.938 73 644.604 52.1667 659.938 37.5C675.604 22.8333 695.771 15.5 720.438 15.5C745.104 15.5 765.104 22.8333 780.438 37.5C795.771 52.1667 803.438 73 803.438 100C803.438 127 795.771 147.833 780.438 162.5C765.104 177.167 745.104 184.5 720.438 184.5C695.771 184.5 675.604 177.167 659.938 162.5C644.604 147.833 636.938 127 636.938 100ZM976.438 21L783.938 373H701.438L893.938 21H976.438ZM719.938 65.5C703.938 65.5 695.938 77 695.938 100C695.938 122.667 703.938 134 719.938 134C727.604 134 733.604 131.167 737.938 125.5C742.271 119.833 744.438 111.333 744.438 100C744.438 77 736.271 65.5 719.938 65.5ZM874.938 294C874.938 267 882.604 246.167 897.938 231.5C913.271 216.833 933.271 209.5 957.938 209.5C982.604 209.5 1002.6 216.833 1017.94 231.5C1033.27 246.167 1040.94 267 1040.94 294C1040.94 321 1033.27 341.833 1017.94 356.5C1002.6 371.167 982.604 378.5 957.938 378.5C933.271 378.5 913.271 371.167 897.938 356.5C882.604 341.833 874.938 321 874.938 294ZM957.438 259.5C949.771 259.5 943.771 262.333 939.438 268C935.438 273.667 933.438 282.333 933.438 294C933.438 316.667 941.438 328 957.438 328C965.104 328 971.104 325.167 975.438 319.5C979.771 313.833 981.938 305.333 981.938 294C981.938 282.667 979.771 274.167 975.438 268.5C971.104 262.5 965.104 259.5 957.438 259.5Z" fill="black"/>
</svg>
