<?xml version="1.0" encoding="UTF-8"?>
<svg id="Layer_2" data-name="Layer 2" xmlns="http://www.w3.org/2000/svg" xmlns:xlink="http://www.w3.org/1999/xlink" viewBox="0 0 286.37 299.63">
  <defs>
    <style>
      .cls-1 {
        fill: url(#linear-gradient);
      }

      .cls-2 {
        fill: #fff;
        stroke: #fff;
        stroke-miterlimit: 10;
      }
    </style>
    <linearGradient id="linear-gradient" x1="0" y1="149.82" x2="286.37" y2="149.82" gradientUnits="userSpaceOnUse">
      <stop offset="0" stop-color="#a5bcf8"/>
      <stop offset="1" stop-color="#d1daf3"/>
    </linearGradient>
  </defs>
  <g id="Layer_1-2" data-name="Layer 1">
    <g>
      <path class="cls-1" d="M236.18,20.75s-60-46.68-144.53,0C91.65,20.75,7.98,59.64.2,162.51c0,0-6.92,72.61,61.37,115.83,0,0,75.2,50.14,154.73-3.46,0,0,64.83-40.69,70.02-132.72,0,0,1.73-47.08-13.83-73.01l-6.92,1.73s-6.92,115.83-84.71,158.19c0,0-62.24,32.85-100.27-28.53,0,0-27.66-38.9-4.32-92.49,0,0,16.42-44.08,57.05-64.83,0,0,44.95-32.85,93.36-5.19l9.51-17.29Z"/>
      <path class="cls-2" d="M235.32,20.75l-37.62,74.39c-4.98-2.78-10.72-4.38-16.83-4.38-19.1,0-34.58,15.48-34.58,34.58s15.48,34.58,34.58,34.58,34.58-15.48,34.58-34.58c0-9.88-4.15-18.79-10.8-25.09l34.13-68.27,13.83,8.64,2.59-5.19-19.88-14.69Z"/>
    </g>
  </g>
</svg>