<?xml version="1.0" encoding="UTF-8"?>
<svg id="Layer_2" data-name="Layer 2" xmlns="http://www.w3.org/2000/svg" xmlns:xlink="http://www.w3.org/1999/xlink" viewBox="0 0 169.74 177.59">
  <defs>
    <style>
      .cls-1 {
        fill: url(#linear-gradient);
      }

      .cls-2 {
        fill: #353535;
        stroke: #353535;
        stroke-miterlimit: 10;
      }
    </style>
    <linearGradient id="linear-gradient" x1="0" y1="88.8" x2="169.74" y2="88.8" gradientUnits="userSpaceOnUse">
      <stop offset="0" stop-color="#a5bcf8"/>
      <stop offset="1" stop-color="#d1daf3"/>
    </linearGradient>
  </defs>
  <g id="Layer_1-2" data-name="Layer 1">
    <g>
      <path class="cls-1" d="M139.99,12.3s-35.56-27.67-85.67,0C54.32,12.3,4.73,35.35.12,96.32c0,0-4.1,43.04,36.38,68.65,0,0,44.57,29.72,91.71-2.05,0,0,38.43-24.12,41.5-78.66,0,0,1.02-27.9-8.2-43.27l-4.1,1.02s-4.1,68.65-50.21,93.76c0,0-36.89,19.47-59.43-16.91,0,0-16.39-23.06-2.56-54.82,0,0,9.73-26.13,33.81-38.43,0,0,26.64-19.47,55.33-3.07l5.64-10.25Z"/>
      <path class="cls-2" d="M139.47,12.3l-22.3,44.09c-2.95-1.65-6.35-2.59-9.98-2.59-11.32,0-20.49,9.18-20.49,20.49s9.18,20.49,20.49,20.49,20.49-9.18,20.49-20.49c0-5.86-2.46-11.13-6.4-14.87l20.23-40.46,8.2,5.12,1.54-3.07-11.78-8.71Z"/>
    </g>
  </g>
</svg>